<?xml version="1.0" encoding="utf-8"?>
<!-- Generator: Adobe Illustrator 16.0.0, SVG Export Plug-In . SVG Version: 6.00 Build 0)  -->
<!DOCTYPE svg PUBLIC "-//W3C//DTD SVG 1.1//EN" "http://www.w3.org/Graphics/SVG/1.1/DTD/svg11.dtd">
<svg version="1.1" id="Layer_1" xmlns="http://www.w3.org/2000/svg" xmlns:xlink="http://www.w3.org/1999/xlink" x="0px" y="0px"
	 width="319.244px" height="288.027px" viewBox="0 0 319.244 288.027" enable-background="new 0 0 319.244 288.027"
	 xml:space="preserve">
<g id="XMLID_1_">
	<g>
		<path fill="#CC3333" d="M278.688,40.642c29.16,29.21,29.16,76.52,0,105.73l-119.07,119.09l-119.07-119.07
			c-29.2-29.24-29.17-76.61,0.07-105.81c14.03-14.01,33.06-21.87,52.88-21.86c19.85-0.08,38.9,7.84,52.87,21.94l6.63,6.64
			c3.66,3.65,9.58,3.65,13.229,0l6.65-6.66c29.17-29.22,76.5-29.26,105.71-0.09C278.619,40.582,278.648,40.611,278.688,40.642z"/>
		<path d="M291.909,27.431c36.449,36.52,36.449,95.66,0.01,132.181l-125.68,125.67c-3.65,3.659-9.57,3.659-13.22,0l-125.69-125.67
			c-36.44-36.521-36.44-95.65,0-132.17c0.05-0.05,0.1-0.1,0.15-0.14c18.24-18.2,42.12-27.3,66-27.3c23.95,0,47.89,9.15,66.14,27.44
			c0.04-0.04,0.08-0.09,0.12-0.13C196.268-9.148,255.438-9.099,291.909,27.431z M278.688,146.372c29.16-29.21,29.16-76.52,0-105.73
			c-0.04-0.03-0.069-0.06-0.1-0.09c-29.21-29.17-76.54-29.13-105.71,0.09l-6.65,6.66c-3.65,3.65-9.57,3.65-13.229,0l-6.63-6.64
			c-13.97-14.1-33.02-22.02-52.87-21.94c-19.82-0.01-38.85,7.85-52.88,21.86c-29.24,29.2-29.27,76.57-0.07,105.81l119.07,119.07
			L278.688,146.372z"/>
	</g>
	<g>
	</g>
</g>
</svg>
