<?xml version="1.0" encoding="utf-8"?>
<!-- Generator: Adobe Illustrator 16.0.0, SVG Export Plug-In . SVG Version: 6.00 Build 0)  -->
<!DOCTYPE svg PUBLIC "-//W3C//DTD SVG 1.1//EN" "http://www.w3.org/Graphics/SVG/1.1/DTD/svg11.dtd">
<svg version="1.1" id="Layer_1" xmlns="http://www.w3.org/2000/svg" xmlns:xlink="http://www.w3.org/1999/xlink" x="0px" y="0px"
	 width="319.244px" height="288.027px" viewBox="0 0 319.244 288.027" enable-background="new 0 0 319.244 288.027"
	 xml:space="preserve">
<path d="M291.905,27.431C255.441-9.098,196.27-9.148,159.739,27.315c-0.04,0.036-0.083,0.086-0.124,0.123l0,0l0,0
	C123.167-9.098,64.002-9.148,27.475,27.3c-0.047,0.043-0.099,0.086-0.142,0.137c-36.444,36.521-36.444,95.657,0,132.171
	l125.685,125.675c3.647,3.657,9.565,3.657,13.217,0l125.685-125.675C328.354,123.087,328.354,63.951,291.905,27.431z
	 M159.615,265.457L40.544,146.39C11.35,117.151,11.382,69.784,40.621,40.583c14.03-14.008,33.053-21.874,52.88-21.866
	c19.85-0.073,38.898,7.842,52.863,21.946l6.637,6.638c3.654,3.65,9.574,3.65,13.226,0l6.654-6.66
	c29.166-29.216,76.496-29.26,105.712-0.094c0.021,0.029,0.057,0.065,0.094,0.094c29.163,29.208,29.163,76.517,0,105.727
	L159.615,265.457z"/>
</svg>
